<?xml version="1.0"?>
<svg xmlns="http://www.w3.org/2000/svg" height="512px" viewBox="0 -46 512 512" width="512px" class=""><g><path d="m512 285c0-41.355469-33.644531-75-75-75h-18.289062l-22.5-90h10.789062c8.285156 0 15-6.714844 15-15v-60c0-8.285156-6.714844-15-15-15h-60c-19.554688 0-36.226562 12.542969-42.421875 30h-49.578125c-8.285156 0-15 6.714844-15 15s6.714844 15 15 15h49.578125c4.851563 13.675781 16.132813 24.320312 30.195313 28.296875-5.335938 5.785156-10.144532 12.078125-14.324219 18.835937-12.070313 19.53125-18.449219 41.988282-18.449219 64.949219v67.917969h-66.1875l-20-60h9.1875c8.285156 0 15-6.714844 15-15 0-36.21875-25.808594-66.523438-60-73.492188v-16.507812c0-36.21875-25.808594-66.523438-60-73.492188v-16.507812c0-8.285156-6.714844-15-15-15s-15 6.714844-15 15v16.507812c-34.191406 6.96875-60 37.273438-60 73.492188v17.578125c-17.460938 6.195313-30 22.867187-30 42.421875 0 20.742188 14.109375 38.242188 33.234375 43.429688-20.441406 19.167968-33.234375 46.402343-33.234375 76.570312v60c0 8.285156 6.714844 15 15 15h16.507812c6.96875 34.191406 37.273438 60 73.492188 60s66.523438-25.808594 73.492188-60h185.015624c6.96875 34.191406 37.273438 60 73.492188 60 41.355469 0 75-33.644531 75-75 0-16.871094-5.601562-32.457031-15.039062-45h.039062c8.285156 0 15-6.714844 15-15zm-32.570312-15h-42.429688c-16.441406 0-31.65625 5.332031-44.03125 14.339844 2.453125-16.433594 9.53125-31.71875 20.5625-44.339844h23.46875c19.554688 0 36.238281 12.539062 42.429688 30zm-132.429688-210h45v30h-45c-8.269531 0-15-6.730469-15-15s6.730469-15 15-15zm-136.230469 229.742188c2.042969 6.125 7.773438 10.257812 14.230469 10.257812h92c8.285156 0 15-6.714844 15-15v-82.917969c0-29.136719 13.226562-55.871093 35.464844-73.375l23.011718 92.046875c-18.421874 21.308594-28.476562 48.21875-28.476562 76.671875v32.574219h-153.074219c-7.304687-50.816406-51.121093-90-103.925781-90-28.597656 0-54.554688 11.496094-73.507812 30.101562 6.929687-34.242187 37.253906-60.101562 73.507812-60.101562h79.1875zm-179.261719 40.257812c6.96875-34.191406 37.273438-60 73.492188-60s66.523438 25.808594 73.492188 60zm73.492188-270c24.8125 0 45 20.1875 45 45v15h-90v-15c0-24.8125 20.1875-45 45-45zm-60 120c-8.269531 0-15-6.730469-15-15s6.730469-15 15-15h120c19.554688 0 36.238281 12.539062 42.429688 30-15.671876 0-146.816407 0-162.429688 0zm60 210c-19.554688 0-36.226562-12.550781-42.421875-30.011719h84.839844c-6.191407 17.460938-22.863281 30.011719-42.417969 30.011719zm377-45c0 24.8125-20.1875 45-45 45s-45-20.1875-45-45 20.1875-45 45-45 45 20.1875 45 45zm0 0" data-original="#000000" class="active-path" data-old_color="#000000" fill="#656565"/><path d="m452 345c0 8.285156-6.714844 15-15 15s-15-6.714844-15-15 6.714844-15 15-15 15 6.714844 15 15zm0 0" data-original="#000000" class="active-path" data-old_color="#000000" fill="#656565"/></g> </svg>
